<?xml version="1.0" standalone="no"?>
<!DOCTYPE svg PUBLIC "-//W3C//DTD SVG 20010904//EN"
 "http://www.w3.org/TR/2001/REC-SVG-20010904/DTD/svg10.dtd">
<svg version="1.0" xmlns="http://www.w3.org/2000/svg"
 width="192.000000pt" height="192.000000pt" viewBox="0 0 192.000000 192.000000"
 preserveAspectRatio="xMidYMid meet">
<metadata>
Created by potrace 1.14, written by Peter Selinger 2001-2017
</metadata>
<g transform="translate(0.000000,192.000000) scale(0.100000,-0.100000)"
fill="#000000" stroke="none">
<path d="M0 960 l0 -960 960 0 960 0 0 960 0 960 -960 0 -960 0 0 -960z m1249
795 c160 -42 300 -171 362 -334 31 -81 37 -230 14 -319 -57 -215 -204 -362
-392 -392 -32 -6 -174 -10 -315 -10 l-258 0 0 -295 0 -295 -110 0 -110 0 0
389 0 390 383 3 c377 3 383 3 429 26 108 53 171 169 171 312 0 141 -60 252
-171 318 l-47 27 -272 3 -273 3 0 -241 0 -241 -107 3 -108 3 -3 333 -2 332
377 0 c296 0 390 -3 432 -15z"/>
</g>
</svg>
